<svg xmlns="http://www.w3.org/2000/svg" viewBox="793.4 604.5 300 300"><path d="M1093.4 698.4v-10.7c0-3-.1-6-.1-9.1-.2-6.6-.6-13.2-1.7-19.7-1.2-6.6-3.1-12.7-6.2-18.7-3-5.9-6.9-11.3-11.6-16-4.7-4.7-10.1-8.6-16-11.6-6-3.1-12.1-5-18.7-6.2-6.5-1.2-13.1-1.6-19.7-1.7-3-.1-6-.1-9.1-.1H876.6c-3 0-6 .1-9.1.1-6.6.2-13.2.6-19.7 1.7-6.6 1.2-12.7 3.1-18.7 6.2-5.9 3-11.3 6.9-16 11.6-4.7 4.7-8.6 10.1-11.6 16-3.1 6-5 12.1-6.2 18.7-1.2 6.5-1.6 13.1-1.7 19.7-.1 3-.1 6-.1 9.1v133.7c0 3 .1 6 .1 9.1.2 6.6.6 13.2 1.7 19.7 1.2 6.6 3.1 12.7 6.2 18.7 3 5.9 6.9 11.3 11.6 16 4.7 4.7 10.1 8.6 16 11.6 6 3.1 12.1 5 18.7 6.2 6.5 1.2 13.1 1.6 19.7 1.7 3 .1 6 .1 9.1.1h133.7c3 0 6-.1 9.1-.1 6.6-.2 13.2-.6 19.7-1.7 6.6-1.2 12.7-3.1 18.7-6.2 5.9-3 11.3-6.9 16-11.6s8.6-10.1 11.6-16c3.1-6 5-12.1 6.2-18.7 1.2-6.5 1.6-13.1 1.7-19.7.1-3 .1-6 .1-9.1v-123z"/></svg>